<svg width="20" height="20" viewBox="0 0 20 20" fill="none" xmlns="http://www.w3.org/2000/svg">
<path d="M9.83593 13.8802C9.85542 13.9051 9.88031 13.9253 9.90874 13.9391C9.93717 13.953 9.96837 13.9602 9.99999 13.9602C10.0316 13.9602 10.0628 13.953 10.0912 13.9391C10.1197 13.9253 10.1446 13.9051 10.1641 13.8802L13.0807 10.1901C13.1875 10.0547 13.0911 9.85421 12.9167 9.85421H10.987V1.04171C10.987 0.927124 10.8932 0.833374 10.7786 0.833374H9.21614C9.10155 0.833374 9.0078 0.927124 9.0078 1.04171V9.8516H7.08332C6.90884 9.8516 6.81249 10.0521 6.91926 10.1875L9.83593 13.8802ZM19.5312 12.9688H17.9687C17.8542 12.9688 17.7604 13.0625 17.7604 13.1771V17.1875H2.23957V13.1771C2.23957 13.0625 2.14582 12.9688 2.03124 12.9688H0.46874C0.354156 12.9688 0.260406 13.0625 0.260406 13.1771V18.3334C0.260406 18.7943 0.632802 19.1667 1.09374 19.1667H18.9062C19.3672 19.1667 19.7396 18.7943 19.7396 18.3334V13.1771C19.7396 13.0625 19.6458 12.9688 19.5312 12.9688Z" fill="#7D2823"/>
</svg>
